<svg xmlns="http://www.w3.org/2000/svg" xml:space="preserve" width="800" height="800" viewBox="0 0 390 390">
  <path fill="#202D73FF" d="M195 0a195 195 0 1 0 0 390 195 195 0 0 0 0-390zm-75.5 45.7a209.6 209.6 0 0 0-23 43c-8-2.3-16-4.8-24-7.6a168.3 168.3 0 0 1 47-35.4zm-67.2 62c11.4 4.3 23 8 34.6 11.3-4.8 19-7.8 39.2-8.8 60H28.4c2.5-25.9 11-50.1 23.9-71.3zm0 174.6A166.2 166.2 0 0 1 28.4 211h49.7c1 21 4 41.2 8.8 60.1a417 417 0 0 0-34.6 11.3zM72.5 309c8-2.8 16-5.3 24-7.5a209.8 209.8 0 0 0 23 43c-17.7-9-33.6-21.1-47-35.5zm106.6 45c-20.4-7.7-38.5-29.6-51-60 16.9-3 33.9-5 51-5.7V354zm0-97.6a401 401 0 0 0-61.1 7.1 275 275 0 0 1-8-52.7h69v45.6zm0-77.4h-69a275 275 0 0 1 7.9-52.7c20.2 4 40.6 6.3 61 7.1V179zm0-77.5C162 101 145 99 128 95.8c12.5-30.3 30.6-52.2 51-59.9v65.7zm158.6 6.1c13 21.2 21.4 45.4 23.9 71.4h-49.7c-1-21-4-41.2-8.8-60.1a416 416 0 0 0 34.6-11.3zM317.5 81c-8 2.8-16 5.3-24 7.5a209.7 209.7 0 0 0-23-43c17.7 9 33.6 21.1 47 35.5zM210.9 36c20.4 7.7 38.5 29.6 51 60-16.9 3-33.9 5-51 5.7V36zm0 97.6c20.5-.8 40.9-3.2 61.1-7.1a275 275 0 0 1 8 52.7h-69v-45.6zm0 77.4h69a275 275 0 0 1-7.9 52.7c-20.2-4-40.6-6.3-61-7.1V211zm0 143.2v-65.7c17.1.7 34.1 2.6 51 5.8-12.5 30.3-30.6 52.2-51 59.9zm59.6-9.8a209.7 209.7 0 0 0 23-43c8 2.3 16 4.8 24 7.6a168.3 168.3 0 0 1-47 35.4zm67.2-62c-11.4-4.3-23-8-34.6-11.3 4.8-19 7.8-39.2 8.8-60h49.7a166.8 166.8 0 0 1-23.9 71.3z"/>
</svg>
