<svg xmlns="http://www.w3.org/2000/svg" xml:space="preserve" width="800" height="800" viewBox="0 0 512 512">
  <circle cx="256" cy="256" r="244.5" fill="#fff"/>
  <path fill="rgb(32, 45, 115)" d="M512 256a254 254 0 0 0-75-181A254.3 254.3 0 0 0 256 0 254.3 254.3 0 0 0 75 75C26.6 123.3 0 187.6 0 256s26.6 132.7 75 181a254.3 254.3 0 0 0 181 75 254 254 0 0 0 181-75 254.3 254.3 0 0 0 75-181zm-40 87.5a195.2 195.2 0 0 0-73.3-41.4 459.2 459.2 0 0 0 0-92.2 195.2 195.2 0 0 0 73.2-41.4 231.7 231.7 0 0 1 0 175zM134 256c0-13.4.6-26.6 1.8-39.6a489 489 0 0 0 108.7 13v53.2c-34 .6-72.5 3.9-108.7 13A439 439 0 0 1 134 256zm110.5 232c-27-5-52.5-27.5-72.8-64.6l-1-2a150.2 150.2 0 0 1 73.8-28.7V488zm23-95.3a151 151 0 0 1 73.8 28.6l-1 2C320 460.6 294.5 483 267.5 488v-95.2zm0-368.6c27 5 52.5 27.4 72.8 64.5l1 2a150.2 150.2 0 0 1-73.8 28.6V24.1zm-23 95.1a150.6 150.6 0 0 1-73.9-28.5l1.1-2C192 51.4 217.5 29 244.5 24v95.1zm23 23.1a169.5 169.5 0 0 0 83.8-30.6c10.3 24.4 17.7 52 22.1 81.5-30.3 8-66 12.5-105.9 13.2v-64zm92.1-66.2A196 196 0 0 0 330 35a232 232 0 0 1 48.2 22.5c-6 6.7-12.2 12.8-18.5 18.5zm-207.2 0a246.5 246.5 0 0 1-18.5-18.5A232 232 0 0 1 182.1 35a195.9 195.9 0 0 0-29.7 41zm92 66.2v64.1a450 450 0 0 1-105.8-13.2c4.3-29.5 11.8-57 22-81.5a170.2 170.2 0 0 0 83.9 30.6zm0 163.3v64c-29 2.2-57.2 12.6-83.8 30.6a339.8 339.8 0 0 1-22-81.4c30.3-8 66-12.5 105.9-13.2zm-92 130.3a195 195 0 0 0 29.7 41 232 232 0 0 1-48.2-22.5c6-6.7 12.2-12.8 18.5-18.5zm207.2 0c6.3 5.7 12.5 11.8 18.5 18.5a232 232 0 0 1-48.2 22.6c10.8-11.2 20.8-25 29.7-41zm-92.1-66.2v-64.1a451 451 0 0 1 106 13.2c-4.5 29.5-12 57-22.2 81.4a170.7 170.7 0 0 0-83.8-30.5zm0-87.1v-53.2c34-.6 72.5-3.9 108.7-13a439.3 439.3 0 0 1 0 79.2 489 489 0 0 0-108.7-13zm194-136.3-.2.2c-15.5 16.6-37.7 30-65.7 39.9-5-32.3-13.6-62.5-25.4-89a270 270 0 0 0 27-26.6c26.4 20.2 48.5 46 64.3 75.5zM114.8 70.8a270 270 0 0 0 27 26.6 356.7 356.7 0 0 0-25.4 89c-28-9.9-50.2-23.3-65.7-39.9l-.2-.2a234.7 234.7 0 0 1 64.3-75.5zm-74.7 97.7c20 18.8 45.4 32.1 73.2 41.4a459 459 0 0 0 0 92.2 195.2 195.2 0 0 0-73.2 41.4 231.7 231.7 0 0 1 0-175zm10.4 197.2.2-.3c15.5-16.5 37.7-30 65.7-39.8 5 32.3 13.6 62.5 25.4 89a267.5 267.5 0 0 0-27 26.6 234.7 234.7 0 0 1-64.3-75.5zm346.7 75.5a267.6 267.6 0 0 0-27-26.6 356.7 356.7 0 0 0 25.4-89c28 9.9 50.2 23.3 65.7 39.8l.2.3a234.6 234.6 0 0 1-64.3 75.5z"/>
</svg>

