<svg xmlns="http://www.w3.org/2000/svg" width="50" height="48" fill="none">
  <path fill="#E2761B" stroke="#E2761B" stroke-linecap="round" stroke-linejoin="round" stroke-width=".2" d="M46.6 1.8 28 15.8l3.4-8.2 15.3-5.8Z"/>
  <path fill="#E4761B" stroke="#E4761B" stroke-linecap="round" stroke-linejoin="round" stroke-width=".2" d="M3.4 1.8 22 16l-3.3-8.4L3.4 1.8Zm36.5 32.6-5 7.7 10.7 3 3-10.5-8.7-.2Zm-38.5.2 3 10.5 10.7-3-5-7.7-8.7.2Z"/>
  <path fill="#E4761B" stroke="#E4761B" stroke-linecap="round" stroke-linejoin="round" stroke-width=".2" d="m14.5 21.3-3 4.6 10.6.5-.3-11.5-7.3 6.4Zm21 0L28 14.7v11.7l10.6-.5-3-4.6ZM15.1 42.1l6.4-3.1-5.5-4.3-1 7.3ZM28.5 39l6.4 3.1-.9-7.4-5.5 4.3Z"/>
  <path fill="#D7C1B3" stroke="#D7C1B3" stroke-linecap="round" stroke-linejoin="round" stroke-width=".2" d="M34.9 42.1 28.5 39l.5 4.2V45l5.9-2.9Zm-19.8 0 6 2.9v-1.8l.4-4.2-6.4 3.1Z"/>
  <path fill="#233447" stroke="#233447" stroke-linecap="round" stroke-linejoin="round" stroke-width=".2" d="m21.1 31.9-5.3-1.6 3.8-1.7 1.5 3.3Zm7.7 0 1.6-3.3 3.8 1.7-5.4 1.6Z"/>
  <path fill="#CD6116" stroke="#CD6116" stroke-linecap="round" stroke-linejoin="round" stroke-width=".2" d="m15.1 42.1 1-7.7-6 .2 5 7.5ZM34 34.4l.9 7.7 5-7.5-6-.2Zm4.5-8.5-10.6.5 1 5.5 1.5-3.3 3.8 1.7 4.3-4.4Zm-22.7 4.4 3.8-1.7 1.5 3.3 1-5.5-10.6-.5 4.3 4.4Z"/>
  <path fill="#E4751F" stroke="#E4751F" stroke-linecap="round" stroke-linejoin="round" stroke-width=".2" d="m11.5 25.9 4.5 8.8-.2-4.4-4.3-4.4Zm22.7 4.4-.2 4.4 4.5-8.8-4.3 4.4Zm-12.1-3.9-1 5.5 1.3 6.5.3-8.6-.6-3.4Zm5.8 0-.5 3.4.2 8.6 1.3-6.5-1-5.5Z"/>
  <path fill="#F6851B" stroke="#F6851B" stroke-linecap="round" stroke-linejoin="round" stroke-width=".2" d="m28.9 31.9-1.3 6.5.9.6 5.5-4.3.2-4.4-5.3 1.6Zm-13.1-1.6.2 4.4 5.5 4.3.9-.6-1.3-6.5-5.3-1.6Z"/>
  <path fill="#C0AD9E" stroke="#C0AD9E" stroke-linecap="round" stroke-linejoin="round" stroke-width=".2" d="M29 45v-1.8l-.5-.4h-7l-.5.4V45l-5.9-3 2 1.7 4.3 3h7.2l4.2-3 2-1.7-5.8 3Z"/>
  <path fill="#161616" stroke="#161616" stroke-linecap="round" stroke-linejoin="round" stroke-width=".2" d="m28.5 39-.9-.6h-5.2l-1 .6-.4 4.2.4-.4h7.1l.5.4-.5-4.2Z"/>
  <path fill="#763D16" stroke="#763D16" stroke-linecap="round" stroke-linejoin="round" stroke-width=".2" d="M47.4 16.8 49 9l-2.4-7.2-18.1 13.6 7 6 9.8 2.9 2.2-2.6-1-.7 1.6-1.4-1.2-.9 1.5-1.2-1-.7ZM1 9l1.6 7.8-1 .7L3 18.7l-1.2 1L3.4 21l-.9.7 2.2 2.6 9.8-3 7-6L3.4 1.9 1 9Z"/>
  <path fill="#F6851B" stroke="#F6851B" stroke-linecap="round" stroke-linejoin="round" stroke-width=".2" d="m45.3 24.3-9.8-3 3 4.6-4.5 8.8 5.9-.1h8.7l-3.3-10.3Zm-30.8-3-9.8 3-3.3 10.3H16L11.5 26l3-4.6Zm13.4 5.1.6-11 2.9-7.8H18.7l2.8 7.8.6 11 .3 3.4v8.6h5.2v-8.6l.3-3.4Z"/>
</svg>
