<svg xmlns="http://www.w3.org/2000/svg" width="106" height="40" fill="none">
  <path stroke="#333A75" stroke-linecap="round" stroke-width="4" d="M17 36H4.9a.8.8 0 0 1-.8-.8V8.7c0-4.2 5-6.3 8-3.3L30 23.6"/>
  <path stroke="#4A5EC4" stroke-linecap="round" stroke-width="4" d="M22.4 4h12.3c.4 0 .8.4.8.8v26.5c0 4.2-5 6.3-8 3.3L9.3 16.4"/>
  <path fill="#212225" d="M64.7 12.6v14.6H63l-.7-.1-.5-.5-6.9-8.6a10.1 10.1 0 0 1 0 1.4v7.8H52V12.6h2.2l.2.1.3.2.2.3 7 8.7a12.1 12.1 0 0 1-.2-1.6v-7.7h3Zm6.3 2.6V19h5v2.6h-5v5.7h-3.5V12.6H77v2.6h-6Zm18.3.1h-4v11.9h-3.4V15.3h-4.1v-2.7h11.5v2.7Zm5.5 5.5-.1-.7c0-.3-.2-.5-.3-.7l-.6-.4a2 2 0 0 0-.8-.2c-.6 0-1 .2-1.4.5-.3.4-.6.8-.7 1.5h3.9Zm-4 1.8c.2.8.5 1.5.9 1.9.4.4 1 .5 1.6.5h1l.6-.4a194.3 194.3 0 0 0 1.1-.4c.3 0 .5.1.6.3l1 1a4.7 4.7 0 0 1-2.3 1.5 8.1 8.1 0 0 1-2.3.3 6 6 0 0 1-2-.3 4.8 4.8 0 0 1-2.8-2.8 6.6 6.6 0 0 1 0-4.4 5 5 0 0 1 4.8-3.1c.6 0 1.2 0 1.8.3a4 4 0 0 1 2.4 2.4 5.4 5.4 0 0 1 .3 2.6v.3l-.3.2H91Zm11.2-4.2c.3-.5.7-1 1.1-1.3.4-.3 1-.5 1.5-.5.4 0 .8.1 1.1.4l-.2 2.2c0 .2 0 .3-.2.3l-.3.1h-.2a41.3 41.3 0 0 0-.8 0c-.5 0-.8 0-1.1.3-.3.2-.5.6-.7 1v6.3h-3V16.8h2.1l.3.2.2.2v.4l.2.8Z"/>
</svg>
