<svg width="106" height="40" viewBox="0 0 106 40" fill="none" xmlns="http://www.w3.org/2000/svg">
<path d="M17.074 35.9793H4.77475C4.34687 35.9793 4 35.6324 4 35.2045V8.65784C4 4.51645 9.00712 2.44243 11.9355 5.37084L30.148 23.5832" stroke="#333A75" stroke-width="4" stroke-linecap="round"/>
<path d="M22.4004 4.02075L34.6996 4.02075C35.1275 4.02075 35.4744 4.36762 35.4744 4.79551V31.3422C35.4744 35.4836 30.4672 37.5576 27.5388 34.6292L9.32642 16.4168" stroke="#4A5EC4" stroke-width="4" stroke-linecap="round"/>
<path d="M64.72 12.635V27.205H62.96C62.7 27.205 62.48 27.165 62.3 27.085C62.1267 26.9983 61.9533 26.8517 61.78 26.645L54.91 17.955C54.9367 18.215 54.9533 18.4683 54.96 18.715C54.9733 18.955 54.98 19.1817 54.98 19.395V27.205H52V12.635H53.78C53.9267 12.635 54.05 12.6417 54.15 12.655C54.25 12.6683 54.34 12.695 54.42 12.735C54.5 12.7683 54.5767 12.8183 54.65 12.885C54.7233 12.9517 54.8067 13.0417 54.9 13.155L61.83 21.905C61.7967 21.625 61.7733 21.355 61.76 21.095C61.7467 20.8283 61.74 20.5783 61.74 20.345V12.635H64.72Z" fill="#212225"/>
<path d="M70.9469 15.235V18.925H75.9269V21.535H70.9469V27.205H67.5469V12.635H76.9269V15.235H70.9469Z" fill="#212225"/>
<path d="M89.345 15.315H85.245V27.205H81.865V15.315H77.765V12.635H89.345V15.315Z" fill="#212225"/>
<path d="M94.7892 20.775C94.7892 20.5283 94.7559 20.2883 94.6892 20.055C94.6292 19.8217 94.5259 19.615 94.3792 19.435C94.2392 19.2483 94.0526 19.0983 93.8192 18.985C93.5859 18.8717 93.3026 18.815 92.9692 18.815C92.3826 18.815 91.9226 18.985 91.5892 19.325C91.2559 19.6583 91.0359 20.1417 90.9292 20.775H94.7892ZM90.8892 22.575C90.9892 23.4417 91.2526 24.0717 91.6792 24.465C92.1059 24.8517 92.6559 25.045 93.3292 25.045C93.6892 25.045 93.9992 25.0017 94.2592 24.915C94.5192 24.8283 94.7492 24.7317 94.9492 24.625C95.1559 24.5183 95.3426 24.4217 95.5092 24.335C95.6826 24.2483 95.8626 24.205 96.0492 24.205C96.2959 24.205 96.4826 24.295 96.6092 24.475L97.5092 25.585C97.1892 25.9517 96.8426 26.2517 96.4692 26.485C96.1026 26.7117 95.7226 26.8917 95.3292 27.025C94.9426 27.1517 94.5526 27.2383 94.1592 27.285C93.7726 27.3383 93.4026 27.365 93.0492 27.365C92.3226 27.365 91.6392 27.2483 90.9992 27.015C90.3659 26.775 89.8092 26.4217 89.3292 25.955C88.8559 25.4883 88.4792 24.9083 88.1992 24.215C87.9259 23.5217 87.7892 22.715 87.7892 21.795C87.7892 21.1017 87.9059 20.445 88.1392 19.825C88.3792 19.205 88.7192 18.6617 89.1592 18.195C89.6059 17.7283 90.1426 17.3583 90.7692 17.085C91.4026 16.8117 92.1159 16.675 92.9092 16.675C93.5959 16.675 94.2226 16.7817 94.7892 16.995C95.3626 17.2083 95.8526 17.5183 96.2592 17.925C96.6726 18.3317 96.9926 18.8317 97.2192 19.425C97.4526 20.0117 97.5692 20.6783 97.5692 21.425C97.5692 21.6583 97.5592 21.8483 97.5392 21.995C97.5192 22.1417 97.4826 22.2583 97.4292 22.345C97.3759 22.4317 97.3026 22.4917 97.2092 22.525C97.1226 22.5583 97.0092 22.575 96.8692 22.575H90.8892Z" fill="#212225"/>
<path d="M102.02 18.435C102.34 17.875 102.707 17.435 103.12 17.115C103.54 16.795 104.02 16.635 104.56 16.635C105.027 16.635 105.407 16.745 105.7 16.965L105.5 19.245C105.467 19.3917 105.41 19.4917 105.33 19.545C105.257 19.5983 105.154 19.625 105.02 19.625C104.967 19.625 104.897 19.6217 104.81 19.615C104.724 19.6083 104.634 19.6017 104.54 19.595C104.447 19.5817 104.35 19.5717 104.25 19.565C104.157 19.5517 104.07 19.545 103.99 19.545C103.537 19.545 103.174 19.665 102.9 19.905C102.634 20.145 102.407 20.4783 102.22 20.905V27.205H99.1205V16.835H100.96C101.114 16.835 101.24 16.8483 101.34 16.875C101.447 16.9017 101.534 16.945 101.6 17.005C101.674 17.0583 101.727 17.1317 101.76 17.225C101.8 17.3183 101.834 17.4317 101.86 17.565L102.02 18.435Z" fill="#212225"/>
</svg>
